PathFileType	4	(X/Y/Z)	C:/Users/beibeiliu/ov580/test_trc/User2\sequence.36_training_dense_left.trc
DataRate	CameraRate	NumFrames	NumMarkers	Units	OrigDataRate	OrigDataStartFrame	OrigNumFrames
120	120	7	19	mm	120	438	500
Frame#	Time	ThumbCMC			ThumbMCP			ThumbIP			ThumbTip			IndexMCP			IndexPIP			IndexTip			MiddleMCP			MiddlePIP			MiddleTip			RingMCP			RingPIP			RingTip			PinkyMCP			PinkyPIP			PinkyTip			BackHand1			BackHand2			BackHand3	
		X0	Y0	Z0	X1	Y1	Z1	X2	Y2	Z2	X3	Y3	Z3	X4	Y4	Z4	X5	Y5	Z5	X6	Y6	Z6	X7	Y7	Z7	X8	Y8	Z8	X9	Y9	Z9	X10	Y10	Z10	X11	Y11	Z11	X12	Y12	Z12	X13	Y13	Z13	X14	Y14	Z14	X15	Y15	Z15	X16	Y16	Z16	X17	Y17	Z17	X18	Y18	Z18	
437	3.64167	-203.679	-21.8175	75.9764	-179.589	-5.96269	55.175	-151.23	-8.69807	30.6769	-127.663	-20.5772	19.798	-190.426	-63.8394	9.6022	-166.947	-62.026	-15.8057	-139.607	-40.9434	-20.4714	-163.975	-80.7705	14.5287	-139.012	-64.8727	-7.46377	-120.957	-29.4758	7.2996	-145.518	-83.5	29.8412	-121.251	-61.8223	16.2595	-120.941	-30.8074	34.3938	-136.469	-83.9808	50.6497	-112.903	-60.8137	34.8699	-117.497	-34.9419	45.463	-178.666	-88.8919	78.6155	-194.968	-82.2797	111.932	-215.426	-62.4824	77.728	
438	3.65	-206.246	-23.1471	77.727	-181.733	-7.41019	53.6706	-153.616	-3.97852	29.3204	-129.652	-18.1591	24.3117	-184.185	-67.5129	10.0458	-167.838	-64.2757	-16.3499	-137.868	-47.9458	-21.4499	-159.395	-80.8513	13.5272	-132.307	-61.5205	-4.17277	-119.399	-31.3148	8.2442	-143.805	-79.9176	27.753	-117.966	-61.0773	18.8617	-120.941	-30.3806	35.2853	-132.129	-82.597	53.0402	-113.871	-56.2929	36.658	-121.025	-29.631	50.4812	-181.965	-86.1585	80.6139	-195.308	-80.8221	106.158	-211.343	-67.775	80.0532	
439	3.65833	-208.474	-21.6061	72.7999	-184.296	-6.56083	53.1806	-155.65	-3.38763	30.5228	-130.929	-16.0486	25.4014	-182.439	-68.7926	13.3058	-163.309	-65.6202	-16.8173	-135.95	-48.6023	-24.0578	-159.981	-78.4132	15.4892	-133.076	-62.6231	-3.20243	-116.708	-27.1914	12.2898	-141.216	-80.2963	31.9917	-118.425	-57.5629	19.9154	-121.598	-25.6872	38.2702	-128.51	-81.4481	52.8983	-111.614	-57.129	38.2868	-117.21	-28.2012	53.7481	-179.215	-86.008	79.5462	-195.833	-79.6836	110.478	-209.221	-69.0382	76.9753	
440	3.66667	-207.785	-24.6578	75.7751	-184.702	-6.94537	50.7466	-155.153	-5.78852	30.2965	-128.694	-14.0242	22.1994	-179.829	-70.2172	10.8083	-162.091	-68.3802	-15.1297	-138.072	-51.9651	-25.8904	-156.49	-77.7715	16.2917	-127.475	-58.7106	-1.22498	-115.998	-25.2077	14.7774	-133.218	-80.0117	30.6851	-114.772	-56.6646	21.9077	-121.829	-26.4758	35.8272	-126.796	-78.6415	52.7922	-108.28	-56.3143	40.6314	-118.978	-25.1665	55.0108	-173.656	-87.5829	82.6016	-192.884	-83.8632	108.436	-207.592	-70.2008	77.1785	
441	3.675	-210.786	-23.6878	72.7676	-186.495	-6.2261	48.7385	-157.983	1.24723	26.7301	-132.235	-11.2919	24.967	-181.754	-67.6489	11.7468	-156.589	-68.2319	-14.5786	-137.234	-53.1222	-26.1453	-151.146	-76.5143	14.3818	-126.082	-58.7591	1.80465	-116.788	-23.0367	16.1592	-135.297	-79.7742	35.1875	-116.297	-57.1782	20.7556	-120.071	-26.3821	37.5513	-127.32	-78.5022	57.6785	-104.886	-51.7469	43.1702	-116.801	-24.4338	55.9188	-176.443	-84.3684	81.5199	-192.551	-83.7974	111.519	-208.145	-68.5732	79.9143	
442	3.68333	-212.001	-23.1543	72.2211	-190.529	-1.30855	50.2728	-161.562	0.667986	30.5587	-131.335	-9.35934	22.4386	-177.471	-70.1342	9.13559	-157.087	-68.7047	-13.2857	-130.804	-52.1626	-26.6268	-152.481	-75.1864	18.1592	-123.504	-57.3816	3.57285	-119.14	-18.1529	22.8666	-133.24	-78.3596	33.1175	-109.964	-53.8005	24.4432	-119.886	-23.324	43.0815	-120.69	-79.3725	56.7737	-103.625	-55.2132	43.8633	-114.031	-24.989	57.2379	-172.011	-86.1565	80.7463	-190.521	-83.0846	110.553	-207.359	-70.0214	78.5387	
443	3.69167	-210.374	-23.9842	75.4286	-189.454	-3.74897	46.8895	-161.019	2.71738	26.7855	-134.318	-4.33523	22.702	-175.636	-70.4469	10.4376	-154.645	-69.5382	-12.3446	-130.766	-55.278	-22.8374	-146.694	-76.8576	19.8306	-121.013	-56.8154	6.07724	-118.072	-20.0138	21.5932	-129.299	-79.3374	34.0464	-112.201	-58.7341	22.9889	-118.174	-25.8532	39.292	-124.27	-78.9835	58.7958	-105.354	-55.8814	42.7169	-110.611	-27.1763	55.5012	-171.117	-88.3456	81.6294	-189.627	-82.5498	114.258	-207.105	-68.4181	76.5702	
